<?xml version="1.0" standalone="no"?>
<!DOCTYPE svg PUBLIC "-//W3C//DTD SVG 20010904//EN"
 "http://www.w3.org/TR/2001/REC-SVG-20010904/DTD/svg10.dtd">
<svg version="1.0" xmlns="http://www.w3.org/2000/svg"
 width="512.000000pt" height="512.000000pt" viewBox="0 0 512.000000 512.000000"
 preserveAspectRatio="xMidYMid meet">

<g transform="translate(0.000000,512.000000) scale(0.100000,-0.100000)"
fill="#000000" stroke="none">
<path d="M2375 5113 c-106 -7 -336 -46 -460 -78 -334 -86 -673 -256 -955 -479
-97 -77 -319 -299 -396 -396 -223 -282 -393 -621 -479 -955 -61 -236 -105
-633 -75 -670 15 -18 54 -20 67 -2 6 6 13 71 16 143 11 240 63 505 141 719 52
141 183 402 261 520 189 283 427 521 710 710 118 78 379 209 520 261 214 78
479 130 719 141 72 3 137 10 144 16 15 12 16 49 0 65 -11 11 -89 13 -213 5z"/>
<path d="M2712 5108 c-7 -7 -12 -21 -12 -33 0 -34 20 -45 85 -45 65 0 85 11
85 45 0 12 -5 26 -12 33 -16 16 -130 16 -146 0z"/>
<path d="M4237 5102 c-13 -14 -17 -38 -17 -90 l0 -72 -74 0 c-66 0 -77 -3 -90
-22 -13 -19 -14 -25 -2 -43 11 -17 26 -20 90 -23 l76 -3 0 -67 c0 -95 33 -138
74 -96 12 11 16 36 16 90 l0 74 74 0 c79 0 106 13 106 50 0 29 -31 40 -109 40
l-71 0 0 80 c0 68 -3 81 -19 90 -27 14 -35 13 -54 -8z"/>
<path d="M2335 4748 c-384 -38 -768 -189 -1090 -427 -128 -95 -351 -318 -446
-446 -584 -790 -584 -1840 0 -2630 95 -128 318 -351 446 -446 790 -584 1840
-584 2630 0 128 95 351 318 446 446 584 790 584 1840 0 2630 -40 55 -135 161
-210 236 -202 202 -407 346 -646 453 -356 159 -748 223 -1130 184z m443 -88
c825 -88 1529 -658 1787 -1445 306 -931 -72 -1947 -916 -2461 -665 -405 -1513
-405 -2178 0 -635 387 -1021 1070 -1021 1806 0 1059 799 1965 1850 2095 131
16 350 18 478 5z"/>
<path d="M2380 4029 c-769 -97 -1331 -765 -1296 -1539 9 -207 51 -375 141
-565 144 -305 379 -543 682 -691 109 -54 146 -56 151 -9 3 29 -1 32 -95 78
-277 137 -502 354 -634 610 -103 201 -147 363 -156 584 -10 241 36 472 133
665 246 491 718 788 1254 788 536 0 1008 -297 1254 -788 97 -193 143 -424 133
-665 -22 -516 -314 -958 -790 -1194 -94 -46 -98 -49 -95 -78 5 -47 42 -45 151
9 303 148 538 386 682 691 90 190 132 358 141 565 35 779 -528 1444 -1306
1540 -96 11 -254 11 -350 -1z"/>
<path d="M2523 3298 c-42 -47 -723 -1079 -723 -1097 0 -35 23 -40 191 -43
l164 -3 5 -495 c5 -538 4 -524 63 -560 30 -19 53 -20 337 -20 284 0 307 1 337
20 59 36 58 22 63 560 l5 495 164 3 c168 3 191 8 191 43 0 18 -681 1050 -723
1097 -11 12 -28 22 -37 22 -9 0 -26 -10 -37 -22z"/>
<path d="M4862 4518 c-7 -7 -12 -42 -12 -85 l0 -73 -69 0 c-52 0 -74 -4 -92
-19 -21 -16 -22 -22 -11 -45 11 -25 15 -26 92 -26 l80 0 0 -71 c0 -81 11 -109
43 -109 38 0 47 19 47 102 l0 78 78 0 c80 0 102 9 102 41 0 32 -40 49 -112 49
l-68 0 0 73 c0 77 -9 97 -45 97 -12 0 -26 -5 -33 -12z"/>
<path d="M5043 2588 c-6 -7 -13 -72 -16 -144 -11 -240 -63 -505 -141 -719 -52
-141 -183 -402 -261 -520 -189 -283 -427 -521 -710 -710 -118 -78 -379 -209
-520 -261 -214 -78 -479 -130 -719 -141 -72 -3 -137 -10 -143 -16 -18 -13 -16
-52 2 -67 37 -30 434 14 670 75 334 86 673 256 955 479 97 77 319 299 396 396
223 282 393 621 479 955 61 236 105 633 75 670 -15 18 -54 20 -67 3z"/>
<path d="M2262 78 c-7 -7 -12 -21 -12 -33 0 -34 20 -45 85 -45 65 0 85 11 85
45 0 12 -5 26 -12 33 -16 16 -130 16 -146 0z"/>
</g>
</svg>
